<svg width="30" height="30" viewBox="0 0 30 30" fill="none" xmlns="http://www.w3.org/2000/svg">
<path d="M24.375 12.425C25.5384 13.0954 26.532 14.0245 27.2787 15.1405C28.0254 16.2565 28.5052 17.5294 28.6811 18.8606C28.8569 20.1918 28.724 21.5456 28.2926 22.8172C27.8613 24.0888 27.1431 25.2441 26.1936 26.1936C25.2441 27.1431 24.0888 27.8613 22.8172 28.2926C21.5456 28.724 20.1918 28.8569 18.8606 28.6811C17.5294 28.5052 16.2565 28.0254 15.1405 27.2787C14.0245 26.532 13.0954 25.5384 12.425 24.375M8.75 7.5H10V12.5M21.625 17.8749L22.5 18.7499L19 22.2499M18.75 10C18.75 14.8325 14.8325 18.75 10 18.75C5.16751 18.75 1.25 14.8325 1.25 10C1.25 5.16751 5.16751 1.25 10 1.25C14.8325 1.25 18.75 5.16751 18.75 10Z" stroke="white" stroke-width="2" stroke-linecap="round" stroke-linejoin="round"/>
</svg>
