<svg width="30" height="26" viewBox="0 0 30 26" fill="none" xmlns="http://www.w3.org/2000/svg">
<path d="M21.25 24.25V21.75C21.25 20.4239 20.7232 19.1521 19.7855 18.2145C18.8479 17.2768 17.5761 16.75 16.25 16.75H6.25C4.92392 16.75 3.65215 17.2768 2.71447 18.2145C1.77678 19.1521 1.25 20.4239 1.25 21.75V24.25M28.75 24.25V21.75C28.7492 20.6422 28.3804 19.566 27.7017 18.6904C27.023 17.8148 26.0727 17.1895 25 16.9125M20 1.9125C21.0755 2.18788 22.0288 2.81338 22.7095 3.69039C23.3903 4.5674 23.7598 5.64604 23.7598 6.75625C23.7598 7.86646 23.3903 8.9451 22.7095 9.82211C22.0288 10.6991 21.0755 11.3246 20 11.6M16.25 6.75C16.25 9.51142 14.0114 11.75 11.25 11.75C8.48858 11.75 6.25 9.51142 6.25 6.75C6.25 3.98858 8.48858 1.75 11.25 1.75C14.0114 1.75 16.25 3.98858 16.25 6.75Z" stroke="white" stroke-width="2" stroke-linecap="round" stroke-linejoin="round"/>
</svg>
