<svg width="273" height="360" viewBox="0 0 273 360" fill="none" xmlns="http://www.w3.org/2000/svg">
<g filter="url(#filter0_bd_538_4179)">
<rect x="10" width="253" height="340" rx="20" fill="white" fill-opacity="0.75" shape-rendering="crispEdges"/>
<g filter="url(#filter1_dii_538_4179)">
<path d="M90 60C90 76.0457 70 90 70 90C70 90 50 76.0457 50 60C50 48.9543 58.9543 40 70 40C81.0457 40 90 48.9543 90 60Z" fill="url(#paint0_linear_538_4179)"/>
</g>
<path d="M67.5 68.3334V60.0001H72.5V68.3334M62.5 57.5001L70 51.6667L77.5 57.5001V66.6667C77.5 67.1088 77.3244 67.5327 77.0118 67.8453C76.6993 68.1578 76.2754 68.3334 75.8333 68.3334H64.1667C63.7246 68.3334 63.3007 68.1578 62.9882 67.8453C62.6756 67.5327 62.5 67.1088 62.5 66.6667V57.5001Z" stroke="white" stroke-width="2" stroke-linecap="round" stroke-linejoin="round"/>
<path d="M122.879 58.4V71H107.093V58.4H108.875V69.434H114.113V58.4H115.877V69.434H121.115V58.4H122.879ZM130.218 66.968H128.238V71H126.51V61.46H128.238V65.492H130.254L133.35 61.46H135.204L131.586 66.05L135.456 71H133.422L130.218 66.968ZM141.037 71.108C140.089 71.108 139.237 70.898 138.481 70.478C137.725 70.058 137.131 69.482 136.699 68.75C136.279 68.006 136.069 67.166 136.069 66.23C136.069 65.294 136.279 64.46 136.699 63.728C137.131 62.984 137.725 62.408 138.481 62C139.237 61.58 140.089 61.37 141.037 61.37C141.985 61.37 142.831 61.58 143.575 62C144.331 62.408 144.919 62.984 145.339 63.728C145.771 64.46 145.987 65.294 145.987 66.23C145.987 67.166 145.771 68.006 145.339 68.75C144.919 69.482 144.331 70.058 143.575 70.478C142.831 70.898 141.985 71.108 141.037 71.108ZM141.037 69.596C141.649 69.596 142.195 69.458 142.675 69.182C143.167 68.894 143.551 68.498 143.827 67.994C144.103 67.478 144.241 66.89 144.241 66.23C144.241 65.57 144.103 64.988 143.827 64.484C143.551 63.968 143.167 63.572 142.675 63.296C142.195 63.02 141.649 62.882 141.037 62.882C140.425 62.882 139.873 63.02 139.381 63.296C138.901 63.572 138.517 63.968 138.229 64.484C137.953 64.988 137.815 65.57 137.815 66.23C137.815 66.89 137.953 67.478 138.229 67.994C138.517 68.498 138.901 68.894 139.381 69.182C139.873 69.458 140.425 69.596 141.037 69.596ZM156.602 61.46V71H154.874V62.972H150.77L150.662 65.096C150.602 66.38 150.488 67.454 150.32 68.318C150.152 69.17 149.876 69.854 149.492 70.37C149.108 70.886 148.574 71.144 147.89 71.144C147.578 71.144 147.224 71.09 146.828 70.982L146.936 69.524C147.092 69.56 147.236 69.578 147.368 69.578C147.848 69.578 148.208 69.368 148.448 68.948C148.688 68.528 148.844 68.03 148.916 67.454C148.988 66.878 149.054 66.056 149.114 64.988L149.276 61.46H156.602ZM163.346 61.37C164.666 61.37 165.674 61.694 166.37 62.342C167.078 62.99 167.432 63.956 167.432 65.24V71H165.794V69.74C165.506 70.184 165.092 70.526 164.552 70.766C164.024 70.994 163.394 71.108 162.662 71.108C161.594 71.108 160.736 70.85 160.088 70.334C159.452 69.818 159.134 69.14 159.134 68.3C159.134 67.46 159.44 66.788 160.052 66.284C160.664 65.768 161.636 65.51 162.968 65.51H165.704V65.168C165.704 64.424 165.488 63.854 165.056 63.458C164.624 63.062 163.988 62.864 163.148 62.864C162.584 62.864 162.032 62.96 161.492 63.152C160.952 63.332 160.496 63.578 160.124 63.89L159.404 62.594C159.896 62.198 160.484 61.898 161.168 61.694C161.852 61.478 162.578 61.37 163.346 61.37ZM162.95 69.776C163.61 69.776 164.18 69.632 164.66 69.344C165.14 69.044 165.488 68.624 165.704 68.084V66.752H163.04C161.576 66.752 160.844 67.244 160.844 68.228C160.844 68.708 161.03 69.086 161.402 69.362C161.774 69.638 162.29 69.776 162.95 69.776Z" fill="#002040"/>
<g filter="url(#filter2_dii_538_4179)">
<path d="M90 130C90 146.046 70 160 70 160C70 160 50 146.046 50 130C50 118.954 58.9543 110 70 110C81.0457 110 90 118.954 90 130Z" fill="url(#paint1_linear_538_4179)"/>
</g>
<path d="M66.667 131.667C66.667 131.667 67.917 133.333 70.0003 133.333C72.0837 133.333 73.3337 131.667 73.3337 131.667M67.5003 127.5H67.5087M72.5003 127.5H72.5087M78.3337 130C78.3337 134.602 74.6027 138.333 70.0003 138.333C65.398 138.333 61.667 134.602 61.667 130C61.667 125.398 65.398 121.667 70.0003 121.667C74.6027 121.667 78.3337 125.398 78.3337 130Z" stroke="white" stroke-width="2" stroke-linecap="round" stroke-linejoin="round"/>
<path d="M119.31 139.434V143.754H117.636V141H107.268L107.25 143.754H105.576L105.594 139.434H106.206C106.998 139.386 107.556 138.762 107.88 137.562C108.204 136.35 108.402 134.646 108.474 132.45L108.6 128.4H117.456V139.434H119.31ZM110.058 132.612C109.998 134.388 109.854 135.858 109.626 137.022C109.41 138.186 109.056 138.99 108.564 139.434H115.674V129.966H110.148L110.058 132.612ZM129.894 136.284C129.894 136.416 129.882 136.59 129.858 136.806H122.118C122.226 137.646 122.592 138.324 123.216 138.84C123.852 139.344 124.638 139.596 125.574 139.596C126.714 139.596 127.632 139.212 128.328 138.444L129.282 139.56C128.85 140.064 128.31 140.448 127.662 140.712C127.026 140.976 126.312 141.108 125.52 141.108C124.512 141.108 123.618 140.904 122.838 140.496C122.058 140.076 121.452 139.494 121.02 138.75C120.6 138.006 120.39 137.166 120.39 136.23C120.39 135.306 120.594 134.472 121.002 133.728C121.422 132.984 121.992 132.408 122.712 132C123.444 131.58 124.266 131.37 125.178 131.37C126.09 131.37 126.9 131.58 127.608 132C128.328 132.408 128.886 132.984 129.282 133.728C129.69 134.472 129.894 135.324 129.894 136.284ZM125.178 132.828C124.35 132.828 123.654 133.08 123.09 133.584C122.538 134.088 122.214 134.748 122.118 135.564H128.238C128.142 134.76 127.812 134.106 127.248 133.602C126.696 133.086 126.006 132.828 125.178 132.828ZM139.28 132.972H135.788V141H134.06V132.972H130.568V131.46H139.28V132.972ZM144.783 141.108C143.811 141.108 142.941 140.898 142.173 140.478C141.417 140.058 140.823 139.482 140.391 138.75C139.959 138.006 139.743 137.166 139.743 136.23C139.743 135.294 139.959 134.46 140.391 133.728C140.823 132.984 141.417 132.408 142.173 132C142.941 131.58 143.811 131.37 144.783 131.37C145.647 131.37 146.415 131.544 147.087 131.892C147.771 132.24 148.299 132.744 148.671 133.404L147.357 134.25C147.057 133.794 146.685 133.452 146.241 133.224C145.797 132.996 145.305 132.882 144.765 132.882C144.141 132.882 143.577 133.02 143.073 133.296C142.581 133.572 142.191 133.968 141.903 134.484C141.627 134.988 141.489 135.57 141.489 136.23C141.489 136.902 141.627 137.496 141.903 138.012C142.191 138.516 142.581 138.906 143.073 139.182C143.577 139.458 144.141 139.596 144.765 139.596C145.305 139.596 145.797 139.482 146.241 139.254C146.685 139.026 147.057 138.684 147.357 138.228L148.671 139.056C148.299 139.716 147.771 140.226 147.087 140.586C146.415 140.934 145.647 141.108 144.783 141.108ZM154.616 136.968H152.636V141H150.908V131.46H152.636V135.492H154.652L157.748 131.46H159.602L155.984 136.05L159.854 141H157.82L154.616 136.968ZM161.666 131.46H163.394V138.408L169.244 131.46H170.81V141H169.082V134.052L163.25 141H161.666V131.46ZM174.164 131.46H175.892V138.408L181.742 131.46H183.308V141H181.58V134.052L175.748 141H174.164V131.46ZM178.628 130.218C177.74 130.218 177.05 130.008 176.558 129.588C176.066 129.156 175.814 128.538 175.802 127.734H176.972C176.984 128.178 177.134 128.538 177.422 128.814C177.722 129.078 178.118 129.21 178.61 129.21C179.102 129.21 179.498 129.078 179.798 128.814C180.098 128.538 180.254 128.178 180.266 127.734H181.472C181.46 128.538 181.202 129.156 180.698 129.588C180.194 130.008 179.504 130.218 178.628 130.218ZM195.654 141.108C194.682 141.108 193.812 140.898 193.044 140.478C192.288 140.058 191.694 139.482 191.262 138.75C190.83 138.006 190.614 137.166 190.614 136.23C190.614 135.294 190.83 134.46 191.262 133.728C191.694 132.984 192.288 132.408 193.044 132C193.812 131.58 194.682 131.37 195.654 131.37C196.518 131.37 197.286 131.544 197.958 131.892C198.642 132.24 199.17 132.744 199.542 133.404L198.228 134.25C197.928 133.794 197.556 133.452 197.112 133.224C196.668 132.996 196.176 132.882 195.636 132.882C195.012 132.882 194.448 133.02 193.944 133.296C193.452 133.572 193.062 133.968 192.774 134.484C192.498 134.988 192.36 135.57 192.36 136.23C192.36 136.902 192.498 137.496 192.774 138.012C193.062 138.516 193.452 138.906 193.944 139.182C194.448 139.458 195.012 139.596 195.636 139.596C196.176 139.596 196.668 139.482 197.112 139.254C197.556 139.026 197.928 138.684 198.228 138.228L199.542 139.056C199.17 139.716 198.642 140.226 197.958 140.586C197.286 140.934 196.518 141.108 195.654 141.108ZM205.181 131.37C206.501 131.37 207.509 131.694 208.205 132.342C208.913 132.99 209.267 133.956 209.267 135.24V141H207.629V139.74C207.341 140.184 206.927 140.526 206.387 140.766C205.859 140.994 205.229 141.108 204.497 141.108C203.429 141.108 202.571 140.85 201.923 140.334C201.287 139.818 200.969 139.14 200.969 138.3C200.969 137.46 201.275 136.788 201.887 136.284C202.499 135.768 203.471 135.51 204.803 135.51H207.539V135.168C207.539 134.424 207.323 133.854 206.891 133.458C206.459 133.062 205.823 132.864 204.983 132.864C204.419 132.864 203.867 132.96 203.327 133.152C202.787 133.332 202.331 133.578 201.959 133.89L201.239 132.594C201.731 132.198 202.319 131.898 203.003 131.694C203.687 131.478 204.413 131.37 205.181 131.37ZM204.785 139.776C205.445 139.776 206.015 139.632 206.495 139.344C206.975 139.044 207.323 138.624 207.539 138.084V136.752H204.875C203.411 136.752 202.679 137.244 202.679 138.228C202.679 138.708 202.865 139.086 203.237 139.362C203.609 139.638 204.125 139.776 204.785 139.776ZM222.081 139.488V143.214H220.461V141H212.487V143.214H210.849V139.488H211.353C211.965 139.452 212.385 139.02 212.613 138.192C212.841 137.364 212.997 136.194 213.081 134.682L213.225 131.46H220.623V139.488H222.081ZM214.665 134.808C214.617 136.008 214.515 137.004 214.359 137.796C214.215 138.576 213.945 139.14 213.549 139.488H218.895V132.972H214.755L214.665 134.808Z" fill="#002040"/>
<g filter="url(#filter3_dii_538_4179)">
<path d="M90 200C90 216.046 70 230 70 230C70 230 50 216.046 50 200C50 188.954 58.9543 180 70 180C81.0457 180 90 188.954 90 200Z" fill="url(#paint2_linear_538_4179)"/>
</g>
<path d="M70 197.833V203.167M67.3333 200.5H72.6667M62.5 195.833L70 191.667L77.5 195.833V206.667C77.5 207.109 77.3244 207.533 77.0118 207.845C76.6993 208.158 76.2754 208.333 75.8333 208.333H64.1667C63.7246 208.333 63.3007 208.158 62.9882 207.845C62.6756 207.533 62.5 207.109 62.5 206.667V195.833Z" stroke="white" stroke-width="2" stroke-linecap="round" stroke-linejoin="round"/>
<path d="M107.317 198.4H116.821V199.93H109.099V203.53H113.023C114.523 203.53 115.663 203.842 116.443 204.466C117.223 205.09 117.613 205.99 117.613 207.166C117.613 208.402 117.187 209.35 116.335 210.01C115.495 210.67 114.289 211 112.717 211H107.317V198.4ZM112.645 209.578C113.677 209.578 114.463 209.38 115.003 208.984C115.543 208.588 115.813 208.006 115.813 207.238C115.813 205.714 114.757 204.952 112.645 204.952H109.099V209.578H112.645ZM124.281 211.108C123.333 211.108 122.481 210.898 121.725 210.478C120.969 210.058 120.375 209.482 119.943 208.75C119.523 208.006 119.313 207.166 119.313 206.23C119.313 205.294 119.523 204.46 119.943 203.728C120.375 202.984 120.969 202.408 121.725 202C122.481 201.58 123.333 201.37 124.281 201.37C125.229 201.37 126.075 201.58 126.819 202C127.575 202.408 128.163 202.984 128.583 203.728C129.015 204.46 129.231 205.294 129.231 206.23C129.231 207.166 129.015 208.006 128.583 208.75C128.163 209.482 127.575 210.058 126.819 210.478C126.075 210.898 125.229 211.108 124.281 211.108ZM124.281 209.596C124.893 209.596 125.439 209.458 125.919 209.182C126.411 208.894 126.795 208.498 127.071 207.994C127.347 207.478 127.485 206.89 127.485 206.23C127.485 205.57 127.347 204.988 127.071 204.484C126.795 203.968 126.411 203.572 125.919 203.296C125.439 203.02 124.893 202.882 124.281 202.882C123.669 202.882 123.117 203.02 122.625 203.296C122.145 203.572 121.761 203.968 121.473 204.484C121.197 204.988 121.059 205.57 121.059 206.23C121.059 206.89 121.197 207.478 121.473 207.994C121.761 208.498 122.145 208.894 122.625 209.182C123.117 209.458 123.669 209.596 124.281 209.596ZM139.846 201.46V211H138.118V202.972H134.014L133.906 205.096C133.846 206.38 133.732 207.454 133.564 208.318C133.396 209.17 133.12 209.854 132.736 210.37C132.352 210.886 131.818 211.144 131.134 211.144C130.822 211.144 130.468 211.09 130.072 210.982L130.18 209.524C130.336 209.56 130.48 209.578 130.612 209.578C131.092 209.578 131.452 209.368 131.692 208.948C131.932 208.528 132.088 208.03 132.16 207.454C132.232 206.878 132.298 206.056 132.358 204.988L132.52 201.46H139.846ZM147.598 204.7C148.81 204.712 149.734 204.988 150.37 205.528C151.006 206.068 151.324 206.83 151.324 207.814C151.324 208.846 150.976 209.644 150.28 210.208C149.596 210.76 148.612 211.03 147.328 211.018L143.188 211V201.46H144.916V204.682L147.598 204.7ZM147.184 209.704C147.964 209.716 148.552 209.56 148.948 209.236C149.356 208.912 149.56 208.432 149.56 207.796C149.56 207.172 149.362 206.716 148.966 206.428C148.582 206.14 147.988 205.99 147.184 205.978L144.916 205.942V209.686L147.184 209.704ZM153.541 201.46H155.269V205.51H160.705V201.46H162.433V211H160.705V207.004H155.269V211H153.541V201.46ZM165.793 201.46H167.521V208.408L173.371 201.46H174.937V211H173.209V204.052L167.377 211H165.793V201.46ZM188.479 209.488V213.286H186.841V211H178.291V201.46H180.019V209.488H185.239V201.46H186.967V209.488H188.479ZM194.121 201.37C195.441 201.37 196.449 201.694 197.145 202.342C197.853 202.99 198.207 203.956 198.207 205.24V211H196.569V209.74C196.281 210.184 195.867 210.526 195.327 210.766C194.799 210.994 194.169 211.108 193.437 211.108C192.369 211.108 191.511 210.85 190.863 210.334C190.227 209.818 189.909 209.14 189.909 208.3C189.909 207.46 190.215 206.788 190.827 206.284C191.439 205.768 192.411 205.51 193.743 205.51H196.479V205.168C196.479 204.424 196.263 203.854 195.831 203.458C195.399 203.062 194.763 202.864 193.923 202.864C193.359 202.864 192.807 202.96 192.267 203.152C191.727 203.332 191.271 203.578 190.899 203.89L190.179 202.594C190.671 202.198 191.259 201.898 191.943 201.694C192.627 201.478 193.353 201.37 194.121 201.37ZM193.725 209.776C194.385 209.776 194.955 209.632 195.435 209.344C195.915 209.044 196.263 208.624 196.479 208.084V206.752H193.815C192.351 206.752 191.619 207.244 191.619 208.228C191.619 208.708 191.805 209.086 192.177 209.362C192.549 209.638 193.065 209.776 193.725 209.776Z" fill="#002040"/>
<g filter="url(#filter4_dii_538_4179)">
<path d="M90 270C90 286.046 70 300 70 300C70 300 50 286.046 50 270C50 258.954 58.9543 250 70 250C81.0457 250 90 258.954 90 270Z" fill="url(#paint3_linear_538_4179)"/>
</g>
<path d="M76.9835 262.883L73.3335 261.667C73.3335 262.551 72.9823 263.399 72.3572 264.024C71.7321 264.649 70.8842 265 70.0002 265C69.1161 265 68.2683 264.649 67.6431 264.024C67.018 263.399 66.6668 262.551 66.6668 261.667L63.0168 262.883C62.6396 263.009 62.3198 263.265 62.115 263.606C61.9103 263.947 61.8341 264.35 61.9002 264.742L62.3835 267.633C62.4152 267.829 62.5157 268.007 62.6669 268.136C62.8182 268.264 63.0102 268.334 63.2085 268.333H65.0002V276.667C65.0002 277.583 65.7502 278.333 66.6668 278.333H73.3335C73.7755 278.333 74.1994 278.158 74.512 277.845C74.8246 277.533 75.0002 277.109 75.0002 276.667V268.333H76.7918C76.9901 268.334 77.1822 268.264 77.3334 268.136C77.4846 268.007 77.5851 267.829 77.6168 267.633L78.1002 264.742C78.1663 264.35 78.09 263.947 77.8853 263.606C77.6805 263.265 77.3607 263.009 76.9835 262.883V262.883Z" stroke="white" stroke-width="2" stroke-linecap="round" stroke-linejoin="round"/>
<path d="M118.792 281L118.774 271.82L114.22 279.47H113.392L108.838 271.874V281H107.11V268.4H108.586L113.842 277.256L119.026 268.4H120.502L120.52 281H118.792ZM127.556 271.37C128.876 271.37 129.884 271.694 130.58 272.342C131.288 272.99 131.642 273.956 131.642 275.24V281H130.004V279.74C129.716 280.184 129.302 280.526 128.762 280.766C128.234 280.994 127.604 281.108 126.872 281.108C125.804 281.108 124.946 280.85 124.298 280.334C123.662 279.818 123.344 279.14 123.344 278.3C123.344 277.46 123.65 276.788 124.262 276.284C124.874 275.768 125.846 275.51 127.178 275.51H129.914V275.168C129.914 274.424 129.698 273.854 129.266 273.458C128.834 273.062 128.198 272.864 127.358 272.864C126.794 272.864 126.242 272.96 125.702 273.152C125.162 273.332 124.706 273.578 124.334 273.89L123.614 272.594C124.106 272.198 124.694 271.898 125.378 271.694C126.062 271.478 126.788 271.37 127.556 271.37ZM127.16 279.776C127.82 279.776 128.39 279.632 128.87 279.344C129.35 279.044 129.698 278.624 129.914 278.084V276.752H127.25C125.786 276.752 125.054 277.244 125.054 278.228C125.054 278.708 125.24 279.086 125.612 279.362C125.984 279.638 126.5 279.776 127.16 279.776ZM141.774 272.972H136.482V281H134.754V271.46H141.774V272.972ZM146.945 271.37C148.265 271.37 149.273 271.694 149.969 272.342C150.677 272.99 151.031 273.956 151.031 275.24V281H149.393V279.74C149.105 280.184 148.691 280.526 148.151 280.766C147.623 280.994 146.993 281.108 146.261 281.108C145.193 281.108 144.335 280.85 143.687 280.334C143.051 279.818 142.733 279.14 142.733 278.3C142.733 277.46 143.039 276.788 143.651 276.284C144.263 275.768 145.235 275.51 146.567 275.51H149.303V275.168C149.303 274.424 149.087 273.854 148.655 273.458C148.223 273.062 147.587 272.864 146.747 272.864C146.183 272.864 145.631 272.96 145.091 273.152C144.551 273.332 144.095 273.578 143.723 273.89L143.003 272.594C143.495 272.198 144.083 271.898 144.767 271.694C145.451 271.478 146.177 271.37 146.945 271.37ZM146.549 279.776C147.209 279.776 147.779 279.632 148.259 279.344C148.739 279.044 149.087 278.624 149.303 278.084V276.752H146.639C145.175 276.752 144.443 277.244 144.443 278.228C144.443 278.708 144.629 279.086 145.001 279.362C145.373 279.638 145.889 279.776 146.549 279.776ZM159.151 276.032C159.787 276.2 160.279 276.47 160.627 276.842C160.975 277.214 161.149 277.676 161.149 278.228C161.149 278.792 160.957 279.296 160.573 279.74C160.189 280.172 159.655 280.514 158.971 280.766C158.299 281.006 157.543 281.126 156.703 281.126C155.995 281.126 155.299 281.036 154.615 280.856C153.943 280.664 153.343 280.394 152.815 280.046L153.337 278.732C153.793 279.02 154.315 279.248 154.903 279.416C155.491 279.572 156.085 279.65 156.685 279.65C157.501 279.65 158.149 279.512 158.629 279.236C159.121 278.948 159.367 278.564 159.367 278.084C159.367 277.64 159.169 277.298 158.773 277.058C158.389 276.818 157.843 276.698 157.135 276.698H155.389V275.456H157.009C157.657 275.456 158.167 275.342 158.539 275.114C158.911 274.886 159.097 274.574 159.097 274.178C159.097 273.746 158.875 273.41 158.431 273.17C157.999 272.93 157.411 272.81 156.667 272.81C155.719 272.81 154.717 273.056 153.661 273.548L153.193 272.216C154.357 271.628 155.575 271.334 156.847 271.334C157.615 271.334 158.305 271.442 158.917 271.658C159.529 271.874 160.009 272.18 160.357 272.576C160.705 272.972 160.879 273.422 160.879 273.926C160.879 274.394 160.723 274.814 160.411 275.186C160.099 275.558 159.679 275.84 159.151 276.032ZM163.776 271.46H165.504V278.408L171.354 271.46H172.92V281H171.192V274.052L165.36 281H163.776V271.46ZM176.274 271.46H178.002V275.51H183.438V271.46H185.166V281H183.438V277.004H178.002V281H176.274V271.46Z" fill="#002040"/>
</g>
<defs>
<filter id="filter0_bd_538_4179" x="0" y="-5" width="273" height="365" filterUnits="userSpaceOnUse" color-interpolation-filters="sRGB">
<feFlood flood-opacity="0" result="BackgroundImageFix"/>
<feGaussianBlur in="BackgroundImage" stdDeviation="2.5"/>
<feComposite in2="SourceAlpha" operator="in" result="effect1_backgroundBlur_538_4179"/>
<feColorMatrix in="SourceAlpha" type="matrix" values="0 0 0 0 0 0 0 0 0 0 0 0 0 0 0 0 0 0 127 0" result="hardAlpha"/>
<feOffset dy="10"/>
<feGaussianBlur stdDeviation="5"/>
<feComposite in2="hardAlpha" operator="out"/>
<feColorMatrix type="matrix" values="0 0 0 0 0 0 0 0 0 0.12549 0 0 0 0 0.25098 0 0 0 0.1 0"/>
<feBlend mode="normal" in2="effect1_backgroundBlur_538_4179" result="effect2_dropShadow_538_4179"/>
<feBlend mode="normal" in="SourceGraphic" in2="effect2_dropShadow_538_4179" result="shape"/>
</filter>
<filter id="filter1_dii_538_4179" x="40" y="40" width="60" height="70" filterUnits="userSpaceOnUse" color-interpolation-filters="sRGB">
<feFlood flood-opacity="0" result="BackgroundImageFix"/>
<feColorMatrix in="SourceAlpha" type="matrix" values="0 0 0 0 0 0 0 0 0 0 0 0 0 0 0 0 0 0 127 0" result="hardAlpha"/>
<feOffset dy="10"/>
<feGaussianBlur stdDeviation="5"/>
<feComposite in2="hardAlpha" operator="out"/>
<feColorMatrix type="matrix" values="0 0 0 0 0 0 0 0 0 0.12549 0 0 0 0 0.25098 0 0 0 0.1 0"/>
<feBlend mode="normal" in2="BackgroundImageFix" result="effect1_dropShadow_538_4179"/>
<feBlend mode="normal" in="SourceGraphic" in2="effect1_dropShadow_538_4179" result="shape"/>
<feColorMatrix in="SourceAlpha" type="matrix" values="0 0 0 0 0 0 0 0 0 0 0 0 0 0 0 0 0 0 127 0" result="hardAlpha"/>
<feOffset dy="-2"/>
<feComposite in2="hardAlpha" operator="arithmetic" k2="-1" k3="1"/>
<feColorMatrix type="matrix" values="0 0 0 0 0 0 0 0 0 0.12549 0 0 0 0 0.25098 0 0 0 0.1 0"/>
<feBlend mode="normal" in2="shape" result="effect2_innerShadow_538_4179"/>
<feColorMatrix in="SourceAlpha" type="matrix" values="0 0 0 0 0 0 0 0 0 0 0 0 0 0 0 0 0 0 127 0" result="hardAlpha"/>
<feOffset dy="2"/>
<feComposite in2="hardAlpha" operator="arithmetic" k2="-1" k3="1"/>
<feColorMatrix type="matrix" values="0 0 0 0 1 0 0 0 0 1 0 0 0 0 1 0 0 0 0.25 0"/>
<feBlend mode="normal" in2="effect2_innerShadow_538_4179" result="effect3_innerShadow_538_4179"/>
</filter>
<filter id="filter2_dii_538_4179" x="40" y="110" width="60" height="70" filterUnits="userSpaceOnUse" color-interpolation-filters="sRGB">
<feFlood flood-opacity="0" result="BackgroundImageFix"/>
<feColorMatrix in="SourceAlpha" type="matrix" values="0 0 0 0 0 0 0 0 0 0 0 0 0 0 0 0 0 0 127 0" result="hardAlpha"/>
<feOffset dy="10"/>
<feGaussianBlur stdDeviation="5"/>
<feComposite in2="hardAlpha" operator="out"/>
<feColorMatrix type="matrix" values="0 0 0 0 0 0 0 0 0 0.12549 0 0 0 0 0.25098 0 0 0 0.1 0"/>
<feBlend mode="normal" in2="BackgroundImageFix" result="effect1_dropShadow_538_4179"/>
<feBlend mode="normal" in="SourceGraphic" in2="effect1_dropShadow_538_4179" result="shape"/>
<feColorMatrix in="SourceAlpha" type="matrix" values="0 0 0 0 0 0 0 0 0 0 0 0 0 0 0 0 0 0 127 0" result="hardAlpha"/>
<feOffset dy="-2"/>
<feComposite in2="hardAlpha" operator="arithmetic" k2="-1" k3="1"/>
<feColorMatrix type="matrix" values="0 0 0 0 0 0 0 0 0 0.12549 0 0 0 0 0.25098 0 0 0 0.1 0"/>
<feBlend mode="normal" in2="shape" result="effect2_innerShadow_538_4179"/>
<feColorMatrix in="SourceAlpha" type="matrix" values="0 0 0 0 0 0 0 0 0 0 0 0 0 0 0 0 0 0 127 0" result="hardAlpha"/>
<feOffset dy="2"/>
<feComposite in2="hardAlpha" operator="arithmetic" k2="-1" k3="1"/>
<feColorMatrix type="matrix" values="0 0 0 0 1 0 0 0 0 1 0 0 0 0 1 0 0 0 0.25 0"/>
<feBlend mode="normal" in2="effect2_innerShadow_538_4179" result="effect3_innerShadow_538_4179"/>
</filter>
<filter id="filter3_dii_538_4179" x="40" y="180" width="60" height="70" filterUnits="userSpaceOnUse" color-interpolation-filters="sRGB">
<feFlood flood-opacity="0" result="BackgroundImageFix"/>
<feColorMatrix in="SourceAlpha" type="matrix" values="0 0 0 0 0 0 0 0 0 0 0 0 0 0 0 0 0 0 127 0" result="hardAlpha"/>
<feOffset dy="10"/>
<feGaussianBlur stdDeviation="5"/>
<feComposite in2="hardAlpha" operator="out"/>
<feColorMatrix type="matrix" values="0 0 0 0 0 0 0 0 0 0.12549 0 0 0 0 0.25098 0 0 0 0.1 0"/>
<feBlend mode="normal" in2="BackgroundImageFix" result="effect1_dropShadow_538_4179"/>
<feBlend mode="normal" in="SourceGraphic" in2="effect1_dropShadow_538_4179" result="shape"/>
<feColorMatrix in="SourceAlpha" type="matrix" values="0 0 0 0 0 0 0 0 0 0 0 0 0 0 0 0 0 0 127 0" result="hardAlpha"/>
<feOffset dy="-2"/>
<feComposite in2="hardAlpha" operator="arithmetic" k2="-1" k3="1"/>
<feColorMatrix type="matrix" values="0 0 0 0 0 0 0 0 0 0.12549 0 0 0 0 0.25098 0 0 0 0.1 0"/>
<feBlend mode="normal" in2="shape" result="effect2_innerShadow_538_4179"/>
<feColorMatrix in="SourceAlpha" type="matrix" values="0 0 0 0 0 0 0 0 0 0 0 0 0 0 0 0 0 0 127 0" result="hardAlpha"/>
<feOffset dy="2"/>
<feComposite in2="hardAlpha" operator="arithmetic" k2="-1" k3="1"/>
<feColorMatrix type="matrix" values="0 0 0 0 1 0 0 0 0 1 0 0 0 0 1 0 0 0 0.25 0"/>
<feBlend mode="normal" in2="effect2_innerShadow_538_4179" result="effect3_innerShadow_538_4179"/>
</filter>
<filter id="filter4_dii_538_4179" x="40" y="250" width="60" height="70" filterUnits="userSpaceOnUse" color-interpolation-filters="sRGB">
<feFlood flood-opacity="0" result="BackgroundImageFix"/>
<feColorMatrix in="SourceAlpha" type="matrix" values="0 0 0 0 0 0 0 0 0 0 0 0 0 0 0 0 0 0 127 0" result="hardAlpha"/>
<feOffset dy="10"/>
<feGaussianBlur stdDeviation="5"/>
<feComposite in2="hardAlpha" operator="out"/>
<feColorMatrix type="matrix" values="0 0 0 0 0 0 0 0 0 0.12549 0 0 0 0 0.25098 0 0 0 0.1 0"/>
<feBlend mode="normal" in2="BackgroundImageFix" result="effect1_dropShadow_538_4179"/>
<feBlend mode="normal" in="SourceGraphic" in2="effect1_dropShadow_538_4179" result="shape"/>
<feColorMatrix in="SourceAlpha" type="matrix" values="0 0 0 0 0 0 0 0 0 0 0 0 0 0 0 0 0 0 127 0" result="hardAlpha"/>
<feOffset dy="-2"/>
<feComposite in2="hardAlpha" operator="arithmetic" k2="-1" k3="1"/>
<feColorMatrix type="matrix" values="0 0 0 0 0 0 0 0 0 0.12549 0 0 0 0 0.25098 0 0 0 0.1 0"/>
<feBlend mode="normal" in2="shape" result="effect2_innerShadow_538_4179"/>
<feColorMatrix in="SourceAlpha" type="matrix" values="0 0 0 0 0 0 0 0 0 0 0 0 0 0 0 0 0 0 127 0" result="hardAlpha"/>
<feOffset dy="2"/>
<feComposite in2="hardAlpha" operator="arithmetic" k2="-1" k3="1"/>
<feColorMatrix type="matrix" values="0 0 0 0 1 0 0 0 0 1 0 0 0 0 1 0 0 0 0.25 0"/>
<feBlend mode="normal" in2="effect2_innerShadow_538_4179" result="effect3_innerShadow_538_4179"/>
</filter>
<linearGradient id="paint0_linear_538_4179" x1="70" y1="40" x2="70" y2="90" gradientUnits="userSpaceOnUse">
<stop stop-color="#409FFF"/>
<stop offset="1" stop-color="#007FFF"/>
</linearGradient>
<linearGradient id="paint1_linear_538_4179" x1="70" y1="110" x2="70" y2="160" gradientUnits="userSpaceOnUse">
<stop stop-color="#409FFF"/>
<stop offset="1" stop-color="#007FFF"/>
</linearGradient>
<linearGradient id="paint2_linear_538_4179" x1="70" y1="180" x2="70" y2="230" gradientUnits="userSpaceOnUse">
<stop stop-color="#409FFF"/>
<stop offset="1" stop-color="#007FFF"/>
</linearGradient>
<linearGradient id="paint3_linear_538_4179" x1="70" y1="250" x2="70" y2="300" gradientUnits="userSpaceOnUse">
<stop stop-color="#409FFF"/>
<stop offset="1" stop-color="#007FFF"/>
</linearGradient>
</defs>
</svg>
