<svg width="322" height="80" viewBox="0 0 322 80" fill="none" xmlns="http://www.w3.org/2000/svg">
<path d="M93.6639 47.1141L90.2627 41.7968C89.6563 40.8546 89.1609 40.2319 88.7777 39.9285C88.3945 39.6251 87.8038 39.4734 87.0052 39.4734H85.0651V47.1141H83.1969V39.4734H81.2567C80.4586 39.4734 79.8675 39.6251 79.4843 39.9285C79.1173 40.2319 78.622 40.8546 77.9992 41.7968L74.598 47.1141H72.4663L76.3226 41.1501C76.8816 40.2878 77.3286 39.673 77.6639 39.3057C78.0155 38.9225 78.4064 38.659 78.8376 38.5153C78.5022 38.3557 78.1751 38.1001 77.8555 37.7489C77.5365 37.3816 77.113 36.8067 76.5861 36.0243L72.8975 30.3477H75.0292L78.2627 35.3776C78.8855 36.3357 79.3808 36.9664 79.7477 37.2698C80.131 37.5572 80.7221 37.7009 81.5202 37.7009H83.1969V30.3477H85.0651V37.7009H86.7418C87.5561 37.7009 88.1473 37.5492 88.5142 37.2459C88.8974 36.9425 89.3928 36.3197 89.9993 35.3776L93.2328 30.3477H95.3645L91.6999 36.0243C90.7418 37.4295 89.9916 38.2598 89.4483 38.5153C89.8637 38.659 90.2388 38.9145 90.5741 39.2818C90.9257 39.6491 91.3885 40.2718 91.9633 41.1501L95.7957 47.1141H93.6639Z" fill="white"/>
<path d="M110.655 47.1141L107.254 41.7968C106.631 40.8546 106.128 40.2319 105.745 39.9285C105.378 39.6251 104.795 39.4734 103.996 39.4734H101.266V47.1141H99.3975V30.3477H101.266V37.7009H103.733C104.531 37.7009 105.114 37.5572 105.481 37.2698C105.865 36.9664 106.368 36.3357 106.99 35.3776L110.224 30.3477H112.356L108.667 36.0243C108.14 36.8067 107.717 37.3816 107.397 37.7489C107.078 38.1001 106.751 38.3557 106.415 38.5153C106.847 38.659 107.23 38.9225 107.565 39.3057C107.917 39.673 108.372 40.2878 108.93 41.1501L112.787 47.1141H110.655Z" fill="white"/>
<path d="M123.989 30.3477H130.456C131.606 30.3477 132.579 30.4994 133.378 30.8027C134.176 31.0902 134.759 31.4814 135.126 31.9764C135.51 32.4714 135.773 32.9425 135.917 33.3896C136.061 33.8367 136.132 34.3078 136.132 34.8027C136.132 36.5912 135.398 37.7808 133.929 38.3716C134.807 38.5792 135.502 39.0423 136.013 39.7608C136.523 40.4634 136.779 41.3097 136.779 42.2998C136.779 45.5093 134.711 47.1141 130.576 47.1141H123.989V30.3477ZM127.294 33.4614V37.0542H130.815C131.613 37.0542 132.18 36.8786 132.516 36.5273C132.851 36.16 133.019 35.7369 133.019 35.2578C133.019 34.0602 132.284 33.4614 130.815 33.4614H127.294ZM127.294 39.9045V43.9764H131.27C132.116 43.9764 132.723 43.7928 133.091 43.4255C133.474 43.0423 133.665 42.5473 133.665 41.9405C133.665 41.3656 133.466 40.8866 133.067 40.5033C132.683 40.1042 132.085 39.9045 131.27 39.9045H127.294Z" fill="white"/>
<path d="M141.699 32.6947C143.359 31.018 145.371 30.1797 147.734 30.1797C150.098 30.1797 152.11 31.018 153.77 32.6947C155.447 34.3554 156.285 36.3673 156.285 38.7306C156.285 41.0938 155.447 43.1138 153.77 44.7905C152.11 46.4512 150.098 47.2815 147.734 47.2815C145.371 47.2815 143.359 46.4512 141.699 44.7905C140.038 43.1138 139.208 41.0938 139.208 38.7306C139.208 36.3673 140.038 34.3554 141.699 32.6947ZM151.471 34.8264C150.465 33.8045 149.22 33.2935 147.734 33.2935C146.249 33.2935 145.004 33.8045 143.998 34.8264C143.008 35.8483 142.513 37.1497 142.513 38.7306C142.513 40.3274 143.008 41.6368 143.998 42.6587C145.004 43.6647 146.249 44.1677 147.734 44.1677C149.235 44.1677 150.481 43.6647 151.471 42.6587C152.477 41.6368 152.98 40.3274 152.98 38.7306C152.98 37.1497 152.477 35.8483 151.471 34.8264Z" fill="white"/>
<path d="M163.546 36.9342H165.653C166.452 36.9342 167.019 36.7585 167.354 36.4072C167.689 36.04 167.857 35.6168 167.857 35.1378C167.857 33.9082 167.075 33.2935 165.51 33.2935H165.39C164.719 33.2935 163.961 33.4452 163.114 33.7485C162.284 34.0519 161.566 34.4512 160.959 34.9462L158.803 32.9581C159.697 32.1118 160.711 31.4411 161.845 30.9462C162.979 30.4352 164.12 30.1797 165.27 30.1797H165.438C166.3 30.1956 167.067 30.3074 167.737 30.515C168.424 30.7226 168.959 30.9861 169.342 31.3054C169.741 31.6088 170.069 31.9681 170.324 32.3833C170.579 32.7985 170.747 33.1897 170.827 33.5569C170.923 33.9242 170.971 34.2994 170.971 34.6827C170.971 35.5929 170.763 36.3913 170.348 37.0779C169.933 37.7645 169.382 38.2435 168.695 38.515C169.558 38.7226 170.236 39.1777 170.731 39.8803C171.242 40.5829 171.498 41.4292 171.498 42.4192C171.498 43.8723 170.995 45.0459 169.989 45.9402C168.999 46.8184 167.434 47.2655 165.294 47.2815H165.126C163.865 47.2815 162.651 47.0021 161.486 46.4432C160.32 45.8843 159.314 45.1417 158.468 44.2156L160.623 42.2276C161.214 42.8024 161.933 43.2735 162.779 43.6408C163.641 43.992 164.464 44.1677 165.246 44.1677H165.366C167.362 44.1358 168.36 43.4332 168.36 42.0599C168.36 41.4851 168.16 41.006 167.761 40.6228C167.378 40.2236 166.779 40.024 165.965 40.024H163.546V36.9342Z" fill="white"/>
<path d="M175.011 30.3477H180.52C182.819 30.3477 184.639 30.9545 185.981 32.168C187.322 33.3656 187.993 34.9066 187.993 36.7908C187.993 38.691 187.322 40.2479 185.981 41.4614C184.639 42.659 182.819 43.2578 180.52 43.2578H178.316V47.1141H175.011V30.3477ZM178.316 40.1441H180.783C181.949 40.1441 182.915 39.8646 183.681 39.3057C184.464 38.7468 184.855 37.9085 184.855 36.7908C184.855 35.7209 184.464 34.8986 183.681 34.3237C182.899 33.7489 181.933 33.4614 180.783 33.4614H178.316V40.1441Z" fill="white"/>
<path d="M193.025 32.6947C194.685 31.018 196.697 30.1797 199.061 30.1797C201.424 30.1797 203.436 31.018 205.097 32.6947C206.773 34.3554 207.612 36.3673 207.612 38.7306C207.612 41.0938 206.773 43.1138 205.097 44.7905C203.436 46.4512 201.424 47.2815 199.061 47.2815C196.697 47.2815 194.685 46.4512 193.025 44.7905C191.364 43.1138 190.534 41.0938 190.534 38.7306C190.534 36.3673 191.364 34.3554 193.025 32.6947ZM202.797 34.8264C201.791 33.8045 200.546 33.2935 199.061 33.2935C197.576 33.2935 196.33 33.8045 195.324 34.8264C194.334 35.8483 193.839 37.1497 193.839 38.7306C193.839 40.3274 194.334 41.6368 195.324 42.6587C196.33 43.6647 197.576 44.1677 199.061 44.1677C200.561 44.1677 201.807 43.6647 202.797 42.6587C203.803 41.6368 204.306 40.3274 204.306 38.7306C204.306 37.1497 203.803 35.8483 202.797 34.8264Z" fill="white"/>
<path d="M229.192 47.1141L225.743 41.7249C225.344 41.1341 225.001 40.7349 224.713 40.5273C224.426 40.3197 224.011 40.2159 223.468 40.2159H222.558V47.1141H219.252V40.2159H218.342C217.783 40.2159 217.36 40.3197 217.072 40.5273C216.785 40.7349 216.45 41.1341 216.066 41.7249L212.617 47.1141H208.881L212.977 40.7189C213.743 39.5373 214.422 38.8107 215.013 38.5393C214.502 38.2678 213.855 37.5971 213.072 36.5273L209.144 30.3477H212.881L216.162 35.5213C216.562 36.1121 216.905 36.5113 217.192 36.7189C217.48 36.9265 217.895 37.0303 218.438 37.0303H219.252V30.3477H222.558V37.0303H223.348C223.891 37.0303 224.306 36.9265 224.593 36.7189C224.897 36.5113 225.24 36.1121 225.623 35.5213L228.929 30.3477H232.665L228.713 36.5273C227.979 37.5652 227.34 38.2359 226.797 38.5393C227.388 38.8267 228.067 39.5533 228.833 40.7189L232.929 47.1141H229.192Z" fill="white"/>
<path d="M252.112 50.2039H248.806V47.1141H237.884V50.2039H234.579V44.0003H236.806L242.411 30.3477H244.375L249.908 44.0003H252.112V50.2039ZM243.345 36.4075L240.351 44.0003H246.363L243.345 36.4075Z" fill="white"/>
<path d="M258.594 37.1261H265.851V40.2399H258.594V44.0004H266.45V47.1141H255.289V30.3477H266.45V33.4614H258.594V37.1261Z" fill="white"/>
<path d="M283.115 47.1141H279.81V40.2399H273.319V47.1141H270.014V30.3477H273.319V37.1261H279.81V30.3477H283.115V47.1141Z" fill="white"/>
<path d="M300.655 47.1141H297.349V36.5513L289.397 47.1141H287.457V30.3477H290.762V40.9105L298.691 30.3477H300.655V47.1141Z" fill="white"/>
<path d="M308.516 37.1261H315.774V40.2399H308.516V44.0004H316.373V47.1141H305.211V30.3477H316.373V33.4614H308.516V37.1261Z" fill="white"/>
<path d="M33.5203 42.5656V13.4129L27.7718 9.10156L18.1909 16.2872V47.2551C21.8575 45.9081 25.978 44.7296 30.0622 43.5614C31.2215 43.2299 32.3779 42.8991 33.5203 42.5656Z" fill="white"/>
<path d="M33.0411 42.7049V13.0535L32.083 12.335V42.982C32.4032 42.8897 32.7226 42.7974 33.0411 42.7049Z" fill="#002040"/>
<path d="M31.6041 43.1204V11.9764L30.646 11.2578V43.395C30.9658 43.3035 31.2852 43.212 31.6041 43.1204Z" fill="#002040"/>
<path d="M30.1671 43.5318V10.8983L29.209 10.1797V43.8059C29.4935 43.7245 29.778 43.6431 30.0624 43.5617C30.0972 43.5518 30.1321 43.5418 30.1671 43.5318Z" fill="#002040"/>
<path d="M28.7296 43.943V9.82013L27.7715 9.10156V44.2185C28.0906 44.1264 28.41 44.0346 28.7296 43.943Z" fill="#002040"/>
<path d="M42.143 39.7699V31.1374L37.8317 28.7422L30.167 32.0955V43.5314C34.3816 42.3259 38.5532 41.1301 42.143 39.7699Z" fill="white"/>
<path d="M41.6637 39.9491V30.8711L40.7056 30.3389V40.2954C41.0289 40.1811 41.3483 40.0657 41.6637 39.9491Z" fill="#002040"/>
<path d="M40.2266 40.4637V30.0733L39.2686 29.541V40.7895C39.5911 40.6818 39.9106 40.5732 40.2266 40.4637Z" fill="#002040"/>
<path d="M38.7896 40.9478V29.2745L37.8315 28.7422V41.2577C38.1535 41.1551 38.4729 41.0518 38.7896 40.9478Z" fill="#002040"/>
<path d="M24.4182 45.2054V28.2634L18.6697 24.9102L9.08887 30.1796V51.9229C12.5811 49.1099 18.2765 47.0598 24.4182 45.2054Z" fill="white"/>
<path d="M23.9395 45.3504V27.9837L22.9814 27.4248V45.6456C23.2992 45.5466 23.6187 45.4482 23.9395 45.3504Z" fill="#002040"/>
<path d="M19.628 46.7433C19.3057 46.8548 18.9862 46.9674 18.6699 47.0812V24.9102L19.628 25.4691V46.7433Z" fill="#002040"/>
<path d="M21.065 46.2584C20.7432 46.3642 20.4238 46.4709 20.1069 46.5787V25.748L21.065 26.3069V46.2584Z" fill="#002040"/>
<path d="M22.502 45.7963C22.1808 45.8976 21.8613 45.9996 21.5439 46.1025V26.5869L22.502 27.1458V45.7963Z" fill="#002040"/>
<path d="M23.9116 53.3572C23.9208 53.3544 23.93 53.351 23.9392 53.3477V53.3735L23.9116 53.3572Z" fill="white"/>
<path d="M59.1489 33.7721C57.9153 51.4966 6.21487 50.0595 9.08907 66.3469C-9.354 43.1134 50.1951 45.9876 52.6818 31.3769C54.598 20.1194 27.5322 4.79004 27.5322 4.79004C27.5322 4.79004 60.1659 19.1613 59.1489 33.7721Z" fill="white"/>
<path d="M64.1786 37.8446C62.3132 57.4331 8.84945 58.2039 17.7117 75.2099C-5.28238 53.8925 57.8016 54.8506 61.3043 36.1679C62.9211 27.5452 55.0768 21.0781 55.0768 21.0781C55.0768 21.0781 65.1367 27.7847 64.1786 37.8446Z" fill="white"/>
</svg>
