<svg width="25" height="25" viewBox="0 0 25 25" fill="none" xmlns="http://www.w3.org/2000/svg">
<path d="M12.4417 3.40278e-05C9.13658 0.0154579 5.97212 1.33922 3.64052 3.68176C1.30891 6.02429 -3.59886e-05 9.19491 7.4212e-10 12.5C7.42126e-10 15.8152 1.31696 18.9947 3.66116 21.3389C6.00537 23.6831 9.18479 25 12.5 25C15.8152 25 18.9946 23.6831 21.3388 21.3389C23.683 18.9947 25 15.8152 25 12.5C25 9.18483 23.683 6.0054 21.3388 3.6612C18.9946 1.31699 15.8152 3.40278e-05 12.5 3.40278e-05C12.4806 -1.13426e-05 12.4611 -1.13426e-05 12.4417 3.40278e-05ZM17.6104 7.52503C17.7146 7.52295 17.9448 7.54899 18.0948 7.67087C18.1945 7.75743 18.258 7.87824 18.2729 8.00941C18.2896 8.10629 18.3104 8.32816 18.2937 8.50108C18.1062 10.4782 17.2917 15.274 16.8771 17.4875C16.7021 18.425 16.3573 18.7386 16.0229 18.7688C15.2979 18.8365 14.7469 18.2896 14.0437 17.8292C12.9437 17.1073 12.3219 16.6584 11.2542 15.9542C10.0198 15.1417 10.8198 14.6938 11.5229 13.9646C11.7073 13.773 14.9052 10.8636 14.9677 10.6C14.975 10.5667 14.9823 10.4438 14.9094 10.3792C14.8365 10.3146 14.7281 10.3365 14.65 10.3542C14.5396 10.3792 12.7823 11.5417 9.37813 13.8386C8.87813 14.1823 8.42708 14.349 8.02188 14.3386C7.57604 14.3302 6.71771 14.0875 6.07917 13.8802C5.29583 13.625 4.67396 13.4907 4.72812 13.0584C4.75625 12.8334 5.06667 12.6032 5.65833 12.3677C9.30208 10.7802 11.7312 9.73337 12.9479 9.22816C16.4187 7.78441 17.1406 7.53337 17.6104 7.52503Z" fill="white"/>
</svg>
