<svg width="15" height="18" viewBox="0 0 15 18" fill="none" xmlns="http://www.w3.org/2000/svg">
<path d="M5.12484 13.75V12.75C4.57255 12.75 4.12484 13.1977 4.12484 13.75H5.12484ZM9.87484 13.75H10.8748C10.8748 13.1977 10.4271 12.75 9.87484 12.75V13.75ZM4.33317 3.24998C3.78089 3.24998 3.33317 3.69769 3.33317 4.24998C3.33317 4.80226 3.78089 5.24998 4.33317 5.24998V3.24998ZM4.34109 5.24998C4.89337 5.24998 5.34109 4.80226 5.34109 4.24998C5.34109 3.69769 4.89337 3.24998 4.34109 3.24998V5.24998ZM10.6665 3.24998C10.1142 3.24998 9.6665 3.69769 9.6665 4.24998C9.6665 4.80226 10.1142 5.24998 10.6665 5.24998V3.24998ZM10.6744 5.24998C11.2267 5.24998 11.6744 4.80226 11.6744 4.24998C11.6744 3.69769 11.2267 3.24998 10.6744 3.24998V5.24998ZM7.49984 3.24998C6.94755 3.24998 6.49984 3.69769 6.49984 4.24998C6.49984 4.80226 6.94755 5.24998 7.49984 5.24998V3.24998ZM7.50775 5.24998C8.06004 5.24998 8.50775 4.80226 8.50775 4.24998C8.50775 3.69769 8.06004 3.24998 7.50775 3.24998V5.24998ZM7.49984 6.41665C6.94755 6.41665 6.49984 6.86436 6.49984 7.41665C6.49984 7.96893 6.94755 8.41665 7.49984 8.41665V6.41665ZM7.50775 8.41665C8.06004 8.41665 8.50775 7.96893 8.50775 7.41665C8.50775 6.86436 8.06004 6.41665 7.50775 6.41665V8.41665ZM7.49984 9.58331C6.94755 9.58331 6.49984 10.031 6.49984 10.5833C6.49984 11.1356 6.94755 11.5833 7.49984 11.5833V9.58331ZM7.50775 11.5833C8.06004 11.5833 8.50775 11.1356 8.50775 10.5833C8.50775 10.031 8.06004 9.58331 7.50775 9.58331V11.5833ZM10.6665 6.41665C10.1142 6.41665 9.6665 6.86436 9.6665 7.41665C9.6665 7.96893 10.1142 8.41665 10.6665 8.41665V6.41665ZM10.6744 8.41665C11.2267 8.41665 11.6744 7.96893 11.6744 7.41665C11.6744 6.86436 11.2267 6.41665 10.6744 6.41665V8.41665ZM10.6665 9.58331C10.1142 9.58331 9.6665 10.031 9.6665 10.5833C9.6665 11.1356 10.1142 11.5833 10.6665 11.5833V9.58331ZM10.6744 11.5833C11.2267 11.5833 11.6744 11.1356 11.6744 10.5833C11.6744 10.031 11.2267 9.58331 10.6744 9.58331V11.5833ZM4.33317 6.41665C3.78089 6.41665 3.33317 6.86436 3.33317 7.41665C3.33317 7.96893 3.78089 8.41665 4.33317 8.41665V6.41665ZM4.34109 8.41665C4.89337 8.41665 5.34109 7.96893 5.34109 7.41665C5.34109 6.86436 4.89337 6.41665 4.34109 6.41665V8.41665ZM4.33317 9.58331C3.78089 9.58331 3.33317 10.031 3.33317 10.5833C3.33317 11.1356 3.78089 11.5833 4.33317 11.5833V9.58331ZM4.34109 11.5833C4.89337 11.5833 5.34109 11.1356 5.34109 10.5833C5.34109 10.031 4.89337 9.58331 4.34109 9.58331V11.5833ZM2.74984 2.08331H12.2498V0.083313H2.74984V2.08331ZM12.2498 2.08331C12.572 2.08331 12.8332 2.34448 12.8332 2.66665H14.8332C14.8332 1.23991 13.6766 0.083313 12.2498 0.083313V2.08331ZM12.8332 2.66665V15.3333H14.8332V2.66665H12.8332ZM12.8332 15.3333C12.8332 15.6555 12.572 15.9166 12.2498 15.9166V17.9166C13.6766 17.9166 14.8332 16.7601 14.8332 15.3333H12.8332ZM12.2498 15.9166H2.74984V17.9166H12.2498V15.9166ZM2.74984 15.9166C2.42767 15.9166 2.1665 15.6555 2.1665 15.3333H0.166504C0.166504 16.7601 1.3231 17.9166 2.74984 17.9166V15.9166ZM2.1665 15.3333V2.66665H0.166504V15.3333H2.1665ZM2.1665 2.66665C2.1665 2.34448 2.42767 2.08331 2.74984 2.08331V0.083313C1.3231 0.083313 0.166504 1.23991 0.166504 2.66665H2.1665ZM6.12484 16.9166V13.75H4.12484V16.9166H6.12484ZM5.12484 14.75H9.87484V12.75H5.12484V14.75ZM8.87484 13.75V16.9166H10.8748V13.75H8.87484ZM4.33317 5.24998H4.34109V3.24998H4.33317V5.24998ZM10.6665 5.24998H10.6744V3.24998H10.6665V5.24998ZM7.49984 5.24998H7.50775V3.24998H7.49984V5.24998ZM7.49984 8.41665H7.50775V6.41665H7.49984V8.41665ZM7.49984 11.5833H7.50775V9.58331H7.49984V11.5833ZM10.6665 8.41665H10.6744V6.41665H10.6665V8.41665ZM10.6665 11.5833H10.6744V9.58331H10.6665V11.5833ZM4.33317 8.41665H4.34109V6.41665H4.33317V8.41665ZM4.33317 11.5833H4.34109V9.58331H4.33317V11.5833Z" fill="white"/>
</svg>
