<svg width="25" height="25" viewBox="0 0 25 25" fill="none" xmlns="http://www.w3.org/2000/svg">
<path d="M9.88437 0.00507812L10.6438 0.00195312H14.3562L15.1167 0.00507812L16.0687 0.0154948L16.5198 0.0227865L16.9552 0.0342448L17.375 0.0488281L17.7792 0.0654948L18.1687 0.0873698L18.5437 0.113411L18.9031 0.144661L19.25 0.179036C21.0625 0.383203 22.3052 0.820703 23.2427 1.7582C24.1802 2.6957 24.6177 3.93737 24.8219 5.75091L24.8573 6.09779L24.8875 6.4582L24.9135 6.8332L24.9344 7.22174L24.9604 7.83424L24.9729 8.26133L24.9865 8.93216L24.9958 9.88528L25 10.9061L24.999 14.3572L24.9958 15.1176L24.9854 16.0697L24.9781 16.5207L24.9667 16.9561L24.9521 17.3759L24.9354 17.7801L24.9135 18.1697L24.8875 18.5447L24.8562 18.904L24.8219 19.2509C24.6177 21.0634 24.1802 22.3061 23.2427 23.2436C22.3052 24.1811 21.0635 24.6186 19.25 24.8228L18.9031 24.8582L18.5427 24.8884L18.1677 24.9144L17.7792 24.9353L17.1667 24.9613L16.7396 24.9738L16.0687 24.9874L15.1156 24.9967L14.0948 25.0009L10.6438 24.9999L9.88333 24.9967L8.93125 24.9863L8.48021 24.979L8.04479 24.9676L7.625 24.953L7.22083 24.9363L6.83125 24.9144L6.45625 24.8884L6.09687 24.8572L5.75 24.8228C3.9375 24.6186 2.69479 24.1811 1.75729 23.2436C0.819792 22.3061 0.382292 21.0644 0.178125 19.2509L0.142708 18.904L0.1125 18.5436L0.0864583 18.1686L0.065625 17.7801L0.0395833 17.1676L0.0270833 16.7405L0.0135417 16.0697L0.00416667 15.1165L0 14.0957L0.00104167 10.6447L0.00416667 9.88424L0.0145833 8.93216L0.021875 8.48112L0.0333333 8.0457L0.0479167 7.62591L0.0645833 7.22174L0.0864583 6.83216L0.1125 6.45716L0.14375 6.09779L0.178125 5.75091C0.382292 3.93841 0.819792 2.6957 1.75729 1.7582C2.69479 0.820703 3.93646 0.383203 5.75 0.179036L6.09687 0.14362L6.45729 0.113411L6.83229 0.0873698L7.22083 0.0665364L7.83333 0.0404948L8.26042 0.0279948L8.93125 0.0144531L9.88437 0.00507812V0.00507812ZM7.07292 7.60508H4.21875C4.35417 14.1051 7.60417 18.0113 13.3021 18.0113H13.625V14.2926C15.7187 14.5009 17.3021 16.0322 17.9375 18.0113H20.8958C20.0833 15.053 17.9479 13.4176 16.6146 12.7926C17.9479 12.0217 19.8229 10.1467 20.2708 7.60508H17.5833C17 9.66758 15.2708 11.5426 13.625 11.7197V7.60508H10.9375V14.8134C9.27083 14.3967 7.16667 12.3759 7.07292 7.60508V7.60508Z" fill="white"/>
</svg>
