<svg width="328" height="80" viewBox="0 0 328 80" fill="none" xmlns="http://www.w3.org/2000/svg">
<rect x="0.239746" width="327" height="80" rx="40" fill="white"/>
<path d="M67.9997 40.16C68.6504 40.384 69.1571 40.736 69.5197 41.216C69.8931 41.6853 70.0797 42.2347 70.0797 42.864C70.0797 43.5467 69.8557 44.1387 69.4077 44.64C68.9597 45.1413 68.3517 45.5253 67.5837 45.792C66.8264 46.0587 65.9944 46.192 65.0877 46.192C64.3197 46.192 63.5517 46.096 62.7837 45.904C62.0264 45.712 61.3064 45.4187 60.6237 45.024L61.4237 43.168C61.9144 43.4667 62.4531 43.696 63.0397 43.856C63.6371 44.0053 64.2184 44.08 64.7837 44.08C65.5517 44.08 66.1864 43.9413 66.6877 43.664C67.1997 43.3867 67.4557 42.9973 67.4557 42.496C67.4557 42.08 67.2797 41.7653 66.9277 41.552C66.5864 41.3387 66.1171 41.232 65.5197 41.232H62.7837V39.28H65.3277C65.8504 39.28 66.2557 39.1733 66.5437 38.96C66.8424 38.7467 66.9917 38.4533 66.9917 38.08C66.9917 37.6427 66.7784 37.3013 66.3517 37.056C65.9357 36.8107 65.3971 36.688 64.7357 36.688C64.2451 36.688 63.7384 36.7573 63.2157 36.896C62.6931 37.024 62.1971 37.2213 61.7277 37.488L60.9437 35.472C62.1277 34.864 63.4077 34.56 64.7837 34.56C65.6584 34.56 66.4637 34.688 67.1997 34.944C67.9357 35.2 68.5224 35.5733 68.9597 36.064C69.3971 36.5547 69.6157 37.1253 69.6157 37.776C69.6157 38.3093 69.4717 38.784 69.1837 39.2C68.8957 39.616 68.5011 39.936 67.9997 40.16ZM75.2837 37.264C76.6171 37.264 77.6411 37.584 78.3557 38.224C79.0704 38.8533 79.4277 39.808 79.4277 41.088V46H77.0917V44.928C76.6224 45.728 75.7477 46.128 74.4677 46.128C73.8064 46.128 73.2304 46.016 72.7397 45.792C72.2597 45.568 71.8917 45.2587 71.6357 44.864C71.3797 44.4693 71.2517 44.0213 71.2517 43.52C71.2517 42.72 71.5504 42.0907 72.1477 41.632C72.7557 41.1733 73.6891 40.944 74.9477 40.944H76.9317C76.9317 40.4 76.7664 39.984 76.4357 39.696C76.1051 39.3973 75.6091 39.248 74.9477 39.248C74.4891 39.248 74.0357 39.3227 73.5877 39.472C73.1504 39.6107 72.7771 39.8027 72.4677 40.048L71.5717 38.304C72.0411 37.9733 72.6011 37.7173 73.2517 37.536C73.9131 37.3547 74.5904 37.264 75.2837 37.264ZM75.0917 44.448C75.5184 44.448 75.8971 44.352 76.2277 44.16C76.5584 43.9573 76.7931 43.664 76.9317 43.28V42.4H75.2197C74.1957 42.4 73.6837 42.736 73.6837 43.408C73.6837 43.728 73.8064 43.984 74.0517 44.176C74.3077 44.3573 74.6544 44.448 75.0917 44.448ZM85.388 42.736H84.092V46H81.596V37.392H84.092V40.736H85.436L87.772 37.392H90.428L87.42 41.52L90.636 46H87.692L85.388 42.736ZM95.0494 37.264C96.3827 37.264 97.4067 37.584 98.1214 38.224C98.836 38.8533 99.1934 39.808 99.1934 41.088V46H96.8574V44.928C96.388 45.728 95.5134 46.128 94.2334 46.128C93.572 46.128 92.996 46.016 92.5054 45.792C92.0254 45.568 91.6574 45.2587 91.4014 44.864C91.1454 44.4693 91.0174 44.0213 91.0174 43.52C91.0174 42.72 91.316 42.0907 91.9134 41.632C92.5214 41.1733 93.4547 40.944 94.7134 40.944H96.6974C96.6974 40.4 96.532 39.984 96.2014 39.696C95.8707 39.3973 95.3747 39.248 94.7134 39.248C94.2547 39.248 93.8014 39.3227 93.3534 39.472C92.916 39.6107 92.5427 39.8027 92.2334 40.048L91.3374 38.304C91.8067 37.9733 92.3667 37.7173 93.0174 37.536C93.6787 37.3547 94.356 37.264 95.0494 37.264ZM94.8574 44.448C95.284 44.448 95.6627 44.352 95.9934 44.16C96.324 43.9573 96.5587 43.664 96.6974 43.28V42.4H94.9854C93.9614 42.4 93.4494 42.736 93.4494 43.408C93.4494 43.728 93.572 43.984 93.8174 44.176C94.0734 44.3573 94.42 44.448 94.8574 44.448ZM106.867 41.52C107.379 41.68 107.774 41.9253 108.051 42.256C108.339 42.5867 108.483 42.9813 108.483 43.44C108.483 43.984 108.297 44.464 107.923 44.88C107.55 45.2853 107.038 45.6 106.387 45.824C105.737 46.048 105.001 46.16 104.179 46.16C103.507 46.16 102.846 46.0907 102.195 45.952C101.545 45.8133 100.942 45.6053 100.387 45.328L101.059 43.584C101.966 44.0213 102.969 44.24 104.067 44.24C104.654 44.24 105.113 44.1547 105.443 43.984C105.785 43.8027 105.955 43.552 105.955 43.232C105.955 42.9547 105.838 42.7467 105.603 42.608C105.369 42.4587 105.027 42.384 104.579 42.384H102.819V40.832H104.355C104.793 40.832 105.129 40.7627 105.363 40.624C105.598 40.4853 105.715 40.2827 105.715 40.016C105.715 39.7387 105.566 39.5253 105.267 39.376C104.979 39.2267 104.563 39.152 104.019 39.152C103.187 39.152 102.281 39.3493 101.299 39.744L100.691 38.016C101.886 37.4933 103.049 37.232 104.179 37.232C104.958 37.232 105.651 37.328 106.259 37.52C106.878 37.712 107.363 37.9947 107.715 38.368C108.067 38.7307 108.243 39.1573 108.243 39.648C108.243 40.0533 108.121 40.4213 107.875 40.752C107.63 41.072 107.294 41.328 106.867 41.52ZM113.643 37.264C114.976 37.264 116 37.584 116.715 38.224C117.43 38.8533 117.787 39.808 117.787 41.088V46H115.451V44.928C114.982 45.728 114.107 46.128 112.827 46.128C112.166 46.128 111.59 46.016 111.099 45.792C110.619 45.568 110.251 45.2587 109.995 44.864C109.739 44.4693 109.611 44.0213 109.611 43.52C109.611 42.72 109.91 42.0907 110.507 41.632C111.115 41.1733 112.048 40.944 113.307 40.944H115.291C115.291 40.4 115.126 39.984 114.795 39.696C114.464 39.3973 113.968 39.248 113.307 39.248C112.848 39.248 112.395 39.3227 111.947 39.472C111.51 39.6107 111.136 39.8027 110.827 40.048L109.931 38.304C110.4 37.9733 110.96 37.7173 111.611 37.536C112.272 37.3547 112.95 37.264 113.643 37.264ZM113.451 44.448C113.878 44.448 114.256 44.352 114.587 44.16C114.918 43.9573 115.152 43.664 115.291 43.28V42.4H113.579C112.555 42.4 112.043 42.736 112.043 43.408C112.043 43.728 112.166 43.984 112.411 44.176C112.667 44.3573 113.014 44.448 113.451 44.448ZM127.187 39.44H124.275V46H121.795V39.44H118.883V37.392H127.187V39.44ZM133.174 40.144C134.294 40.1547 135.153 40.4107 135.75 40.912C136.347 41.4027 136.646 42.1013 136.646 43.008C136.646 43.9573 136.31 44.6987 135.638 45.232C134.977 45.7547 134.043 46.016 132.838 46.016L128.518 46V37.392H130.998V40.144H133.174ZM132.614 44.24C133.094 44.2507 133.462 44.1493 133.718 43.936C133.974 43.7227 134.102 43.4027 134.102 42.976C134.102 42.56 133.974 42.256 133.718 42.064C133.473 41.872 133.105 41.7707 132.614 41.76L130.998 41.744V44.24H132.614ZM146.529 42.736H145.233V46H142.737V37.392H145.233V40.736H146.577L148.913 37.392H151.569L148.561 41.52L151.777 46H148.833L146.529 42.736ZM156.769 46.128C155.862 46.128 155.046 45.9413 154.321 45.568C153.606 45.184 153.046 44.656 152.641 43.984C152.235 43.312 152.033 42.5493 152.033 41.696C152.033 40.8427 152.235 40.08 152.641 39.408C153.046 38.736 153.606 38.2133 154.321 37.84C155.046 37.456 155.862 37.264 156.769 37.264C157.675 37.264 158.486 37.456 159.201 37.84C159.915 38.2133 160.475 38.736 160.881 39.408C161.286 40.08 161.489 40.8427 161.489 41.696C161.489 42.5493 161.286 43.312 160.881 43.984C160.475 44.656 159.915 45.184 159.201 45.568C158.486 45.9413 157.675 46.128 156.769 46.128ZM156.769 44.08C157.409 44.08 157.931 43.8667 158.337 43.44C158.753 43.0027 158.961 42.4213 158.961 41.696C158.961 40.9707 158.753 40.3947 158.337 39.968C157.931 39.5307 157.409 39.312 156.769 39.312C156.129 39.312 155.601 39.5307 155.185 39.968C154.769 40.3947 154.561 40.9707 154.561 41.696C154.561 42.4213 154.769 43.0027 155.185 43.44C155.601 43.8667 156.129 44.08 156.769 44.08ZM163.205 37.392H165.685V40.752H169.429V37.392H171.925V46H169.429V42.784H165.685V46H163.205V37.392ZM178.411 46.128C177.493 46.128 176.667 45.9413 175.931 45.568C175.205 45.184 174.635 44.656 174.219 43.984C173.813 43.312 173.611 42.5493 173.611 41.696C173.611 40.8427 173.813 40.08 174.219 39.408C174.635 38.736 175.205 38.2133 175.931 37.84C176.667 37.456 177.493 37.264 178.411 37.264C179.317 37.264 180.107 37.456 180.779 37.84C181.461 38.2133 181.957 38.752 182.267 39.456L180.331 40.496C179.883 39.7067 179.237 39.312 178.395 39.312C177.744 39.312 177.205 39.5253 176.779 39.952C176.352 40.3787 176.139 40.96 176.139 41.696C176.139 42.432 176.352 43.0133 176.779 43.44C177.205 43.8667 177.744 44.08 178.395 44.08C179.248 44.08 179.893 43.6853 180.331 42.896L182.267 43.952C181.957 44.6347 181.461 45.168 180.779 45.552C180.107 45.936 179.317 46.128 178.411 46.128ZM192.282 37.392L188.394 46.528C188 47.52 187.509 48.2187 186.922 48.624C186.346 49.0293 185.648 49.232 184.826 49.232C184.378 49.232 183.936 49.1627 183.498 49.024C183.061 48.8853 182.704 48.6933 182.426 48.448L183.338 46.672C183.53 46.8427 183.749 46.976 183.994 47.072C184.25 47.168 184.501 47.216 184.746 47.216C185.088 47.216 185.365 47.1307 185.578 46.96C185.792 46.8 185.984 46.528 186.154 46.144L186.186 46.064L182.458 37.392H185.034L187.45 43.232L189.882 37.392H192.282ZM201.133 37.392V46H198.637V39.44H195.917L195.837 40.96C195.795 42.0907 195.688 43.0293 195.517 43.776C195.347 44.5227 195.069 45.1093 194.685 45.536C194.301 45.9627 193.768 46.176 193.085 46.176C192.723 46.176 192.291 46.112 191.789 45.984L191.917 43.936C192.088 43.9573 192.211 43.968 192.285 43.968C192.659 43.968 192.936 43.8347 193.117 43.568C193.309 43.2907 193.437 42.944 193.501 42.528C193.565 42.1013 193.613 41.5413 193.645 40.848L193.773 37.392H201.133ZM208.189 40.144C209.309 40.1547 210.168 40.4107 210.765 40.912C211.363 41.4027 211.661 42.1013 211.661 43.008C211.661 43.9573 211.325 44.6987 210.653 45.232C209.992 45.7547 209.059 46.016 207.853 46.016L203.533 46V37.392H206.013V40.144H208.189ZM207.629 44.24C208.109 44.2507 208.477 44.1493 208.733 43.936C208.989 43.7227 209.117 43.4027 209.117 42.976C209.117 42.56 208.989 42.256 208.733 42.064C208.488 41.872 208.12 41.7707 207.629 41.76L206.013 41.744V44.24H207.629ZM219.672 39.44H216.76V46H214.28V39.44H211.368V37.392H219.672V39.44ZM224.346 37.264C225.68 37.264 226.704 37.584 227.418 38.224C228.133 38.8533 228.49 39.808 228.49 41.088V46H226.154V44.928C225.685 45.728 224.81 46.128 223.53 46.128C222.869 46.128 222.293 46.016 221.802 45.792C221.322 45.568 220.954 45.2587 220.698 44.864C220.442 44.4693 220.314 44.0213 220.314 43.52C220.314 42.72 220.613 42.0907 221.21 41.632C221.818 41.1733 222.752 40.944 224.01 40.944H225.994C225.994 40.4 225.829 39.984 225.498 39.696C225.168 39.3973 224.672 39.248 224.01 39.248C223.552 39.248 223.098 39.3227 222.65 39.472C222.213 39.6107 221.84 39.8027 221.53 40.048L220.634 38.304C221.104 37.9733 221.664 37.7173 222.314 37.536C222.976 37.3547 223.653 37.264 224.346 37.264ZM224.154 44.448C224.581 44.448 224.96 44.352 225.29 44.16C225.621 43.9573 225.856 43.664 225.994 43.28V42.4H224.282C223.258 42.4 222.746 42.736 222.746 43.408C222.746 43.728 222.869 43.984 223.114 44.176C223.37 44.3573 223.717 44.448 224.154 44.448ZM240.354 43.952V47.888H238.034V46H230.658V37.392H233.138V43.952H236.61V37.392H239.106V43.952H240.354ZM241.924 37.392H244.404V42.512L248.596 37.392H250.884V46H248.404V40.88L244.228 46H241.924V37.392ZM261.427 37.264C262.302 37.264 263.086 37.456 263.779 37.84C264.473 38.2133 265.017 38.736 265.411 39.408C265.806 40.08 266.003 40.8427 266.003 41.696C266.003 42.5493 265.806 43.312 265.411 43.984C265.017 44.656 264.473 45.184 263.779 45.568C263.086 45.9413 262.302 46.128 261.427 46.128C260.67 46.128 259.977 45.9893 259.347 45.712C258.718 45.424 258.195 45.024 257.779 44.512C257.363 43.9893 257.086 43.392 256.947 42.72H255.763V46H253.283V37.392H255.763V40.56H256.963C257.209 39.5573 257.731 38.7573 258.531 38.16C259.331 37.5627 260.297 37.264 261.427 37.264ZM261.427 44.08C262.035 44.08 262.537 43.8667 262.931 43.44C263.337 43.0027 263.539 42.4213 263.539 41.696C263.539 40.96 263.337 40.3787 262.931 39.952C262.537 39.5253 262.035 39.312 261.427 39.312C260.809 39.312 260.297 39.5253 259.891 39.952C259.497 40.3787 259.299 40.96 259.299 41.696C259.299 42.4213 259.497 43.0027 259.891 43.44C260.297 43.8667 260.809 44.08 261.427 44.08Z" fill="#002040"/>
</svg>
